<?xml version="1.0" standalone="no"?>
<!DOCTYPE svg PUBLIC "-//W3C//DTD SVG 20010904//EN"
 "http://www.w3.org/TR/2001/REC-SVG-20010904/DTD/svg10.dtd">
<svg version="1.0" xmlns="http://www.w3.org/2000/svg"
 width="200.000000pt" height="200.000000pt" viewBox="0 0 200.000000 200.000000"
 preserveAspectRatio="xMidYMid meet">

<g transform="translate(0.000000,200.000000) scale(0.100000,-0.100000)"
fill="#000000" stroke="none">
<path d="M747 1250 c-35 -11 -92 -54 -114 -86 -26 -40 -8 -39 30 2 28 31 41
38 69 37 116 -3 287 -205 252 -297 -5 -12 -13 -10 -46 15 -25 18 -53 29 -73
29 -39 0 -45 14 -45 105 0 63 -12 97 -28 80 -5 -6 -4 -49 1 -102 l10 -92 -31
-33 c-43 -43 -59 -101 -38 -133 9 -13 24 -26 35 -30 28 -9 100 13 137 41 21
15 44 23 67 22 21 -1 46 7 66 21 38 27 42 54 7 45 -39 -9 -48 2 -31 43 35 82
5 184 -74 256 -69 62 -143 92 -194 77z m63 -380 c0 -16 5 -30 10 -30 6 0 10
11 10 25 0 32 6 31 53 -5 36 -27 37 -29 18 -39 -28 -16 -73 -14 -99 5 -29 20
-30 74 0 74 4 0 8 -13 8 -30z"/>
<path d="M1096 1034 c-18 -18 -6 -54 19 -54 25 0 37 36 19 54 -8 9 -17 16 -19
16 -2 0 -11 -7 -19 -16z"/>
<path d="M1257 924 c-20 -20 -37 -40 -37 -44 0 -4 -12 -12 -26 -19 -35 -15
-67 4 -81 51 l-10 33 -12 -28 c-14 -35 -14 -72 -1 -98 13 -24 66 -26 92 -2 17
15 20 15 43 -7 22 -21 27 -22 55 -10 18 7 39 25 48 39 8 14 25 36 36 49 17 19
17 22 3 22 -9 0 -17 7 -17 15 0 13 -29 35 -47 35 -5 0 -25 -16 -46 -36z m59
-44 c17 0 19 -17 2 -23 -23 -8 -48 13 -48 41 l0 26 16 -22 c8 -12 22 -22 30
-22z"/>
<path d="M974 726 c-10 -26 4 -48 28 -44 17 2 23 10 23 28 0 18 -6 26 -23 28
-13 2 -25 -3 -28 -12z"/>
<path d="M1154 726 c-9 -24 4 -48 23 -44 12 2 18 12 18 28 0 29 -32 41 -41 16z"/>
<path d="M1324 726 c-10 -26 4 -48 28 -44 17 2 23 10 23 28 0 18 -6 26 -23 28
-13 2 -25 -3 -28 -12z"/>
</g>
</svg>
